<svg version="1" xmlns="http://www.w3.org/2000/svg" width="493.333" height="493.333" viewBox="0 0 370.000000 370.000000"><path d="M165 2c-26.3 2.6-54.4 11.4-74.5 23.2-20.3 12.1-41.3 31.9-56.7 53.5-13.2 18.5-24.9 46.4-30.3 72.2-4.1 19.6-4.1 51.4 0 71.8 3.8 18.2 12.5 41.8 20.7 55.8 14.6 24.9 40 49.5 66.3 63.9 8.8 4.9 7.5 3.6-4.2-4.3C47 311.9 23.2 279.2 12 235.5c-4.8-18.8-6.5-34.1-5.7-53 .7-15.9 1.4-20.5 6.2-39.6C28.3 80.3 77 30 135.7 15.5c33.5-8.2 60.9-8.5 94.3-1 37.9 8.6 70.4 30.3 96.9 64.7 4.4 5.8 16.1 24.1 16.1 25.2 0 .2 1.7 4.2 3.9 8.8 19 40.8 22.1 89.8 8.4 132.2-7.1 22-15.4 38-27.6 53.1-11 13.7-29.8 30.3-47.4 41.9-4 2.6-7.3 5-7.3 5.3 0 .7 10.5-5.4 19-11.1 25.3-16.8 45.1-38.8 58-64.6 25.5-50.6 25.8-113.2.9-165.5-15.2-32.1-42.1-61.9-71.4-79.2-16.2-9.6-41.6-18.4-62.3-21.7C205.2 1.7 176.9.8 165 2z"/><path d="M169.5 59.7c-56.1 4.7-101 44.6-113.1 100.4-2.2 10.5-2.9 29.7-1.5 41.4 3.2 24.9 17.2 54.1 33.1 69l4.3 4-4.6-6.5c-11.9-16.6-20-34.3-23.9-52.5-2.8-13.1-3-37.7-.5-50.8 5.5-27.8 21.1-54.9 41.5-72.3 19.9-17 40.2-26.4 66.7-30.9 5.5-.9 10.2-1.9 10.4-2.1.5-.4-5.6-.3-12.4.3z"/><path d="M233.3 76.2c-11.8 13-25.9 60-30.9 103l-.6 5.7-2.4-1.5c-2.2-1.5-2.2-1.7-.8-4 2.2-3.3 1.1-8.7-2.4-11.4-7.4-5.9-18.1 4-12.6 11.8 1.4 2 1.4 2.3-.3 2.9-3.7 1.3-6.3 4.6-6.3 8 0 7.2 8.5 10.8 14.4 6.2 1.4-1.1 2.6-1.6 2.6-1.1 0 1.6 3 2.3 5.1 1.2 1.7-1 1.9-.7 1.9 2.7 0 2.9-.3 3.4-1.2 2.5-1.7-1.7-6.4-1.5-8.2.4-4.6 4.6 1.4 12.6 6.8 9.1 2-1.4 2.3-1.1 5.1 4.8l3 6.3-3.1-.5c-4.2-.7-6.7 1.9-6.2 6.4.3 2.7.1 3.3-1.5 3.3-3.2 0-5.5 1.9-6.6 5.3-1.9 5.5.5 9.7 6.2 11.1 2 .5 2.7 1.2 2.7 3.1 0 1.4.9 3.3 1.9 4.2 1.9 1.5 1.9 1.7.3 2.9-1.4 1-2.1.8-4.1-1.2-1.6-1.6-3.5-2.4-5.8-2.4-3.1 0-3.3-.2-2.7-2.5 1.6-6.4-3.7-11.4-9.8-9.3-7.7 2.7-5.7 14.2 2.5 14.2 3.1 0 3.4.2 2.6 1.7-.5 1-.9 3.1-.9 4.7 0 3.8 5.2 8.6 8.7 7.9 2-.4 2.3 0 2.3 2.4 0 6.1 8.1 9.4 11.4 4.7 3.3-4.6.9-10.7-4.3-11.1-1.1-.1-2.1-.7-2.1-1.4 0-1.1.5-1.1 2.1-.2 1.2.6 3.1.9 4.4.7 1.8-.4 2.5.2 3.5 3 .8 2.4 2.2 3.8 4.7 4.9 2.7 1.1 3.3 1.7 2.4 2.6-.6.6-1.1 2.7-1.1 4.6 0 2.7-.3 3.2-1.2 2.3-.7-.7-2.9-1.2-4.9-1.2-2.8 0-4.3.6-5.8 2.6-1.9 2.4-2.1 2.5-4.3 1-8-5.6-18 4.1-11.9 11.5 1.8 2.3 1.8 2.3-.3 3.4-1.1.6-2.2 2-2.4 3.1-.2 1.6-.8 2-2.7 1.6-1.7-.3-3.3.4-5.3 2.4-2.6 2.6-3.1 2.8-5.5 1.6-1.4-.7-3.8-1-5.2-.6-2.7.7-6.5 4.8-6.5 7.1 0 1.1-.4 1.1-2.1.3-2-1.1-2-1.2.7-3.2 2.3-1.8 2.6-2.7 2.2-6.3-.5-4-.4-4.2 2.9-5.4 1.9-.7 3.7-1.9 4-2.7.4-1.1 1-.7 2.4 1.5 2.2 3.6 5.2 4.7 8.8 3.1 2.7-1.1 5.1-4.6 5.1-7.4 0-.7-.9-2.5-2.1-4-2.4-3-7.1-3.5-10.6-1.1-2 1.4-2.2 1.4-2.8-.5-1-3.2-6.1-5.3-9.6-4.1-2.3.8-2.9.7-2.9-.5 0-1 1.2-1.4 3.9-1.4 5.4 0 9.1-3.6 9.1-8.8 0-3.8-2.8-8.2-5.2-8.2-.6 0-.4-.8.5-1.8 2.3-2.6 2.1-4.9-.5-6.3-1.3-.7-2.5-1.1-2.8-1-.3.1-.6-.5-.8-1.3-.3-1.2.2-1.3 2.6-.4 3.8 1.5 8.5-.3 10.1-3.9 1.4-3.1-.1-8.8-2.7-10.2-1.5-.9-1.5-1.1.2-3 4.3-4.7.6-14.1-5.5-14.1h-2.8l3.5-5.1c1.9-2.8 3.4-5.7 3.4-6.5 0-2.2 1.7-1.7 2.3.7.3 1.3-.2 2.8-1.4 4-1 1-1.9 2.4-1.9 3 0 2.4 2.2 4.9 4.4 4.9s2.4.3 1.9 4c-.9 6.9 4.8 11.2 11.3 8.5 3.7-1.5 5.8-5.2 4.8-8.9-.5-2-.1-2.4 2.4-2.9 5.8-1.2 8.7-6.8 5.8-11.3-2.4-3.5-6.1-4.8-9.5-3.1-2.7 1.3-2.7 1.3-2.8-1.9-.1-2.4.4-3.5 1.7-3.9 2.4-.8 3.2-3.2 1.9-5.6-1.3-2.6-5.1-2.1-6.4.8-.7 1.7-1.5 2.1-3.8 1.6-2-.4-3.7 0-5.6 1.5l-2.9 2.1-.6-3.7c-.3-2-.6-6.6-.6-10.1 0-6.3 0-6.4 1.9-4.7 3.5 3.2 8.4-1.7 5-5.1-.7-.7-.4-1.2 1.4-1.6 2.1-.6 4.7-4.2 4.7-6.7 0-2-4.1-5-6.8-5-5.2 0-7.8 5.2-4.8 9.6 1.2 1.6 1.2 2.3.1 3.7-1.5 2.1-1.2 4.3-4.5-34.7-1.1-13.3-2.5-24.5-3.1-25.2-1.4-1.7-4.5-1.8-5.6-.2-.4.7-1 20.6-1.3 44.3l-.5 43h-6l-.3-42.9c-.1-29.7-.6-43.3-1.3-44.3-1.4-1.6-5.1-1.7-6.7-.1-.9.9-1.2 11.9-1.2 43.4 0 44.8 0 45.1-4.7 44.2-1.7-.3-1.8-3-2.3-43.6-.5-45.7-.5-45.2-5-45.2s-4.5-.5-5 45.2l-.5 43.3-2.4.3c-1.3.2-2.8-.2-3.2-1-.5-.7-.9-20.2-.9-43.4 0-31.3-.3-42.3-1.2-43.2-1.8-1.8-4.6-1.4-5.8.7-1.1 2.2-3.4 29-5 61.6-1.2 22.9-1.2 23 1 29 1.9 4.8 3.9 7.5 10 13.5 7.6 7.4 10.6 11.8 13.1 19.5 1 3 1.4 17.4 1.8 57.9l.6 53.9 3.5 1.2c1.9.7 4.7 1.5 6.3 1.9l2.7.6v-13.4c0-12.9.1-13.4 2-12.9 1.5.4 2 1.4 2 3.7 0 3.7 2.4 7.6 4.7 7.6 1.3 0 1.1.6-1 2.8-6.7 7 .5 17.1 9.8 13.6.8-.4 2.3-2 3.1-3.6 1.3-2.6 1.6-2.7 3.1-1.3 1.4 1.4 1.7 1.4 3.9 0 2.1-1.3 2.4-1.3 2.4-.1 0 7.8 9.6 11.3 15 5.6 2.2-2.3 2.9-2.7 3.4-1.5.3.8 1.7 1.5 3 1.5 1.9 0 2.7-.7 3.2-2.4.3-1.4.3-3-.1-3.5-.4-.7.5-1.1 2.4-1.1 2.3 0 3.1.5 3.1 1.8 0 5.9 8.4 8.6 11.5 3.8 1-1.5 1.4-3.3.9-5-.6-2.4-.4-2.6 2.4-2.6 3.5 0 7.2-3.9 7.2-7.4 0-3.2-2.6-6.4-6-7.1-2.3-.5-2.7-.9-1.7-1.9 1-1.1 1.4-1.1 2.2.1 1.8 2.4 6.9 1.3 7.3-1.5.5-3.4-1.7-5.5-4.9-4.8-2.2.4-2.8.1-3.3-1.9-.4-1.4-1.9-3.1-3.5-3.9-2.2-1.2-2.7-2-2.4-3.9.3-1.6-.2-3.1-1.6-4.4-1.2-1.1-1.7-2.3-1.2-3.1.6-1 1.2-.6 2.5 1.3 2.2 3.3 5.3 4.5 8.9 3.3 3.2-1.2 4.7-3.5 4.7-7.6 0-5.6-6.2-8.5-11.5-5.3-2.7 1.6-3.5 1.7-3.5.6 0-.7-1.1-2.2-2.4-3.2-1.9-1.6-2.1-2.1-.9-3.2.8-.7 1.1-2.1.8-3.1-.4-1.3.1-2 1.7-2.5 1.3-.4 3.1-1.4 4.1-2.3 1.5-1.4 1.7-1.3 1.7.6 0 2.1 3.4 5.2 5.8 5.2.7 0 2.4-1.1 3.7-2.5l2.5-2.4V330c0 18.7.3 34 .8 34 .4 0 3.4-.9 6.7-1.9l6-1.9.3-138.4c.2-144.3.2-146.8-3.9-147.6-.8-.1-2.4.8-3.6 2zm-50.5 147.2c-.2.2-1.9.6-3.8.9-3.2.4-3.5.3-3.5-1.9 0-1.7.6-2.4 2-2.4 1.1 0 2.7-.5 3.5-1 1.2-.7 1.6-.4 1.8 1.6.2 1.4.2 2.7 0 2.8zm-28.3 12.9c.4 2.7 1.3 4.1 3.1 4.9 2.3 1.1 2.3 1.2.8 3-1.5 1.6-1.8 1.6-2.9.2-2.6-3.6-8.1.8-5.7 4.6 1 1.7 1 2-.6 2-1 0-2.8.7-4 1.6-2.1 1.4-2.2 1.4-2.2-.9 0-4 2.8-10.6 6.7-16 2-2.7 3.8-4.6 3.9-4.1.1.5.5 2.6.9 4.7zm66.5 1.5c3.5 5.3 3.9 7.3.9 4.6-1.3-1.2-3.4-1.8-5.7-1.8-3.4.1-3.7-.1-3.7-2.5.1-1.4.6-3.6 1.4-4.9 1.5-2.8 2.7-2.1 7.1 4.6zm-13.9-2.4c-1.9 2.2-1 5.9 1.6 6.6 1.7.4 2 .9 1.3 2-.5.8-1 2.5-1 3.7v2.3l-2-2c-1.1-1.1-2.5-2-3-2-.7 0-.7-.7.1-2.1 1.1-2.1.9-5.8-.5-9.1-.5-1.1-.2-1.8 1.1-2 2.6-.6 3.9.8 2.4 2.6zm19.2 16.2c.5 2.7.3 3.1-1.2 2.7-1.6-.4-1.7-.9-.8-3.3.6-1.6 1.2-2.8 1.3-2.7 0 .1.4 1.6.7 3.3zm-9.5 4.4c2.2 0 3.2.5 3.2 1.5 0 1.1-1.1 1.5-3.7 1.5-2 0-4.4.7-5.4 1.6-1.6 1.4-1.8 1.4-2.9-.5-.6-1.2-1.8-2.1-2.8-2.2-1.3 0-1.2-.3.5-1.1 1.3-.6 2.5-2 2.9-3 .6-1.9.6-1.9 2.8.1 1.3 1.2 3.6 2.1 5.4 2.1zm10.2 13.1c0 8.2-.1 8.9-1.6 7.5-.8-.9-2.5-1.6-3.7-1.6-1.9 0-1.9-.1-.4-1.3 2.4-1.8 3.8-6.3 2.8-8.9-.6-1.7-.4-2.6.8-3.5.9-.7 1.7-1.3 1.9-1.3.1 0 .2 4.1.2 9.1zm-78.4-2.7c1.5.4 3.7.1 5.4-.8 2.4-1.2 2.9-1.2 3.4 0 .4.9-.2 1.4-1.5 1.4-1.1 0-3.1 1.1-4.4 2.5-1.7 1.6-2.5 1.9-2.5 1 0-1.8-3.7-3.8-5.6-3.1-1 .4-1.4-.4-1.4-3.1v-3.6l2 2.6c1.1 1.3 3.1 2.8 4.6 3.1zm0 8.2c-.3.8 0 3 .8 4.9 1.3 3.1 1.3 3.3-.6 3.8-2.9.8-2.1 6.1.9 6.5 1.9.3 2.1.8 1.7 3.1-.3 1.6-.1 3.8.5 5 1 1.8.9 2.1-.9 2.1-1.7 0-2-.4-1.5-2 .9-2.8-1.1-5-4.6-5H142v-9.6c0-8.6.2-9.5 1.8-9 .9.3 2.4.1 3.2-.4 2.1-1.3 2.3-1.2 1.6.6zm78.4 15.5v4.1l-1.9-2.3c-1.8-2.2-1.8-2.6-.4-4.2 2.2-2.4 2.3-2.3 2.3 2.4zm-9.3.1c-.6.4-1.5.2-1.9-.5-1.4-2.1-.9-2.8 1.2-1.5 1.3.9 1.6 1.4.7 2zm-15.8 7.6c-1.4 1-1.9 2.2-1.6 3.9.3 1.6-.2 2.7-1.5 3.4-2.3 1.3-4.8 6.7-4 8.8 1.1 3.2 4.6 6.1 7.4 6.1 2.5 0 2.7.3 1.9 1.8-.7 1.4-.6 2.5.5 4 1.4 2 1.3 2.4-.3 4.7-2.1 2.8-2.9 3.1-3.7 1-.3-.8-1.6-1.5-2.9-1.5-2 0-2.3-.4-1.9-3 .9-6.1-2.1-10-7.7-10-1.5 0-1.9-.8-1.9-4-.1-3.3.3-4 1.8-4 2.3 0 4.2-3.2 3.4-5.4-.4-1.1 0-1.6 1.4-1.6 2.5 0 8.2-4.6 8.2-6.7 0-1.3.3-1.3 1.5-.3 1.4 1.1 1.3 1.5-.6 2.8zm-57.5 2.8c1.3.5 1.3.9-.1 4-1.5 3.1-1.5 3.7 0 6.8.9 1.9 2.5 3.7 3.6 4.1 1.9.6 1.8.7-.5 3-3 3-3.1 6.4-.3 10 1.8 2.2 2.8 2.6 6 2.3 2.2-.2 3.9 0 3.9.3 0 .4.2 1.3.5 2.1.4 1-.6 1.3-4 1.3-2.7 0-4.5-.5-4.5-1.1 0-.6-.7-1.7-1.6-2.5-1.2-1-2-1-3.5-.1-1.8 1.2-1.9.7-1.9-14.8 0-8.8.2-16 .4-16s1.1.3 2 .6zm33.6 18.7c3.2 1.1 3.5 1.5 2.9 3.7-.4 1.4-.7 2-.8 1.3-.2-1.8-3.8-2.6-6.1-1.3-2.4 1.3-2.6 5.2-.4 7.4.8.9 1.9 1.6 2.2 1.6.4 0 .7 1.4.7 3.2 0 2.4.6 3.6 2.7 4.7 3.5 2 5.9.7 7.3-3.7 1.1-4 4.5-4.5 4.5-.8 0 2.5 3.2 5.6 5.9 5.6.8 0 2.2-.7 3.2-1.6 1.5-1.4 1.9-1.3 4.2 1 1.5 1.5 3.7 2.6 5.3 2.6 2.6 0 2.7.1.9 2-1.3 1.4-1.6 3-1.3 5.8.5 3.3.3 3.8-1.6 4-1.9.1-2.2-.4-2.2-3.3 0-5.5-4.9-9.2-10-7.5-1.3.5-2.2.1-2.9-1.4-1.5-3.1-5.2-3.3-6.5-.4-1.3 2.7-6 5.4-6 3.3 0-.7-.9-2.4-2.1-3.9-1.5-1.9-3-2.6-5.5-2.6-6.6 0-10.9 7.6-6.8 12.2 1.4 1.4 1.4 2.1.4 3.3-1 1.2-1.7.9-4.6-2.2-1.9-2-3-3.9-2.5-4.2 1.6-1 3-5.7 2.4-8-.4-1.7-.1-2.1 2.1-2.1 3.2 0 6.6-3.2 6.6-6.3 0-2.7-.9-4-3.5-5.5-1.9-1.1-1.9-1.1.6-1.2 2.8 0 6.9-3.3 6.9-5.5 0-1.8-.3-1.8 4-.2zm-15 5.8c0 .5-.7.9-1.5.9s-1.5-.7-1.5-1.5c0-.9.6-1.2 1.5-.9.8.4 1.5 1 1.5 1.5zm19 3.9c0 .5-.5 1-1.1 1-.5 0-.7-.5-.4-1 .3-.6.8-1 1.1-1 .2 0 .4.4.4 1zm8 22.6c0 2.1.8 4 2.2 5.4 1.8 1.6 1.9 2 .5 2-.9 0-2 .7-2.5 1.6-.7 1.3-1 1-1.5-1.4-.3-1.7-1.6-3.9-2.7-5-1.8-1.7-1.9-2-.6-2.5.9-.4 1.6-1.5 1.6-2.6 0-1.4.5-1.9 1.5-1.5.9.4 1.5 1.9 1.5 4zm-10 .8c-1.4 1.4-2.2.2-1.4-1.8.5-1.4.9-1.5 1.5-.4.4.7.4 1.7-.1 2.2zm-6.6 4.1c-.4.8-1 1.2-1.5.9-1.4-.8-1-2.4.6-2.4.9 0 1.2.6.9 1.5zM277.6 100c.5.8 3.5 5.5 6.7 10.3 10.4 15.5 17.3 32.1 21.3 50.7 2.6 11.9 2.6 39.2.1 50.9-4.3 19.8-11.2 36.3-22.2 52.7-3.6 5.4-6.3 9.9-6.1 10.1.8.9 14.3-14.9 19.6-22.8 21.2-32.2 24.8-75.9 9.3-112.9-4.8-11.4-14.6-26-22.8-34-3.7-3.6-6.4-5.8-5.9-5z"/><path d="M181.1 122.6c-1.2 1.5-2.1 3.2-2.1 3.8 0 .6-.5.3-1.1-.7-1.4-2.4-7.5-2.3-8.9.2-1.6 3.1-1.2 5.9 1.1 7.4 1.9 1.4 1.9 1.7.6 3.9-.8 1.2-1.8 3.3-2.2 4.5-.8 2.9 2.1 9 4.7 9.9 2 .6 2 .7-.4 2.8-1.4 1.1-2.8 2.9-3.2 3.9-.9 2.6 1.9 8.4 4.3 9.2 3.7 1.1 8-.4 9.6-3.5l1.5-2.8 3.5 1.8c2.9 1.5 4.2 1.6 6.6.8 9.1-3.1 7-15.8-2.6-15.8-4.1 0-8.5 3.6-8.5 7v2l-2.1-2.1c-1.1-1.1-1.9-2.2-1.7-2.3.2-.1 1.5-1 3.1-1.9 1.5-1 2.7-2.5 2.7-3.3 0-1.2.6-1.5 2.4-1 3.5.9 5.6-.3 5.6-3.1 0-1.3.4-2.2.9-1.9.5.3 1.9-.2 3.1-1.2 1.9-1.6 2.1-2.2 1.1-4-.6-1.2-1.8-2.2-2.5-2.2-1 0-1.2-1.1-.9-4.4.5-3.8.2-4.8-2-7-3.7-3.7-9.7-3.6-12.6 0zm-1.1 10.5c0 .5-.7.9-1.5.9-.9 0-1.2-.6-.9-1.5.6-1.5 2.4-1.1 2.4.6zm12 4.7c0 1-.6 1.9-1.2 1.9-.7 0-2 .4-2.9.7-1.1.5-1.8.1-2.2-1.3-.4-1.6.1-2.1 2.7-2.4 1.7-.2 3.2-.5 3.4-.5.1-.1.2.6.2 1.6zM170.4 194.4c-1.5 4 2.1 8.1 5 5.7 2.1-1.7 2.1-5.7 0-6.5-2.6-1-4.4-.7-5 .8zM171 261.9c-1.4 2.7-1.3 5.3.5 7.8 1.3 1.8 1.2 2.2-.4 3.7-2.8 2.5-3.4 6.2-1.6 9.6 3.1 5.9 10 6.9 14.5 2 1.7-1.8 3.1-2.6 3.5-2 1.6 2.5 6.9-.7 5.8-3.6-.9-2.3-4.2-3.7-5.7-2.5-1 .8-1.6.5-2.4-1.4-.7-1.4-2.3-3-3.7-3.7-2-.9-2.4-1.6-1.8-3.2 1.6-5-.4-8.6-4.8-8.6-1.8 0-3.2.7-3.9 1.9zM218 325.5c-1.5 1.8-1 4.5 1.2 5.9 1.3.8 2.2.6 3.7-.8 2.5-2.3 2.6-3 .5-5-1.9-2-3.8-2-5.4-.1z"/></svg>